<svg id="Layer_1" enable-background="new 0 0 511.999 511.999" height="512" viewBox="0 0 511.999 511.999" width="512" xmlns="http://www.w3.org/2000/svg"><g><g clip-rule="evenodd" fill-rule="evenodd"><path d="m275.999 401.999v-271.995-120.004h-240v491.999h80v-100h80v100h80z" fill="#e3eaef"/><path d="m115.999 401.999h80v100h-80z" fill="#c5d3de"/><path d="m275.999 401.999h200v100h-200z" fill="#c5d3de"/><path d="m275.999 130.004h200v271.995h-200z" fill="#e3eaef"/><g fill="#fff"><path d="m145.999 40.001h19.997c5.523 0 10 4.477 10 10v20c0 5.523-4.477 10-10 10h-19.997c-5.523 0-10-4.477-10-10v-20c0-5.523 4.477-10 10-10z"/><path d="m145.999 110.001h19.997c5.523 0 10 4.477 10 10v20c0 5.523-4.477 10-10 10h-19.997c-5.523 0-10-4.477-10-10v-20c0-5.523 4.477-10 10-10z"/><path d="m145.999 180.001h19.997c5.523 0 10 4.477 10 10v20c0 5.523-4.477 10-10 10h-19.997c-5.523 0-10-4.477-10-10v-20c0-5.523 4.477-10 10-10z"/><path d="m145.999 250h19.997c5.523 0 10 4.477 10 10v20c0 5.523-4.477 10-10 10h-19.997c-5.523 0-10-4.477-10-10v-20c0-5.522 4.477-10 10-10z"/><path d="m145.999 320h19.997c5.523 0 10 4.477 10 10v20c0 5.523-4.477 10-10 10h-19.997c-5.523 0-10-4.477-10-10v-20c0-5.523 4.477-10 10-10z"/><path d="m76.001 40.001h19.997c5.523 0 10 4.477 10 10v20c0 5.523-4.477 10-10 10h-19.997c-5.523 0-10-4.477-10-10v-20c0-5.523 4.477-10 10-10z"/><path d="m76.001 110.001h19.997c5.523 0 10 4.477 10 10v20c0 5.523-4.477 10-10 10h-19.997c-5.523 0-10-4.477-10-10v-20c0-5.523 4.477-10 10-10z"/><path d="m76.001 180.001h19.997c5.523 0 10 4.477 10 10v20c0 5.523-4.477 10-10 10h-19.997c-5.523 0-10-4.477-10-10v-20c0-5.523 4.477-10 10-10z"/><path d="m76.001 250h19.997c5.523 0 10 4.477 10 10v20c0 5.523-4.477 10-10 10h-19.997c-5.523 0-10-4.477-10-10v-20c0-5.522 4.477-10 10-10z"/><path d="m76.001 320h19.997c5.523 0 10 4.477 10 10v20c0 5.523-4.477 10-10 10h-19.997c-5.523 0-10-4.477-10-10v-20c0-5.523 4.477-10 10-10z"/><path d="m216.001 40.001h19.997c5.523 0 10 4.477 10 10v20c0 5.523-4.477 10-10 10h-19.997c-5.523 0-10-4.477-10-10v-20c0-5.523 4.477-10 10-10z"/><path d="m216.001 110.001h19.997c5.523 0 10 4.477 10 10v20c0 5.523-4.477 10-10 10h-19.997c-5.523 0-10-4.477-10-10v-20c0-5.523 4.477-10 10-10z"/><path d="m216.001 180.001h19.997c5.523 0 10 4.477 10 10v20c0 5.523-4.477 10-10 10h-19.997c-5.523 0-10-4.477-10-10v-20c0-5.523 4.477-10 10-10z"/><path d="m216.001 250h19.997c5.523 0 10 4.477 10 10v20c0 5.523-4.477 10-10 10h-19.997c-5.523 0-10-4.477-10-10v-20c0-5.522 4.477-10 10-10z"/><path d="m216.001 320h19.997c5.523 0 10 4.477 10 10v20c0 5.523-4.477 10-10 10h-19.997c-5.523 0-10-4.477-10-10v-20c0-5.523 4.477-10 10-10z"/><path d="m401 180.001h19.997c5.523 0 10 4.477 10 10v20c0 5.523-4.477 10-10 10h-19.997c-5.523 0-10-4.477-10-10v-20c0-5.523 4.477-10 10-10z"/><path d="m401 250h19.997c5.523 0 10 4.477 10 10v20c0 5.523-4.477 10-10 10h-19.997c-5.523 0-10-4.477-10-10v-20c0-5.522 4.477-10 10-10z"/><path d="m401 320h19.997c5.523 0 10 4.477 10 10v20c0 5.523-4.477 10-10 10h-19.997c-5.523 0-10-4.477-10-10v-20c0-5.523 4.477-10 10-10z"/><path d="m331.002 180.001h19.997c5.523 0 10 4.477 10 10v20c0 5.523-4.477 10-10 10h-19.997c-5.523 0-10-4.477-10-10v-20c0-5.523 4.477-10 10-10z"/><path d="m331.002 250h19.997c5.523 0 10 4.477 10 10v20c0 5.523-4.477 10-10 10h-19.997c-5.523 0-10-4.477-10-10v-20c0-5.522 4.477-10 10-10z"/><path d="m331.002 320h19.997c5.523 0 10 4.477 10 10v20c0 5.523-4.477 10-10 10h-19.997c-5.523 0-10-4.477-10-10v-20c0-5.523 4.477-10 10-10z"/></g></g><path d="m476 120.004h-190v-110.004c0-5.522-4.477-10-10-10h-240c-5.523 0-10 4.478-10 10v491.999c0 5.522 4.477 10 10 10h240 200c5.523 0 10-4.478 10-10v-371.995c0-5.523-4.478-10-10-10zm-190 20h180v251.995h-180zm-160 351.995v-80h60v80zm69.999-100h-80c-5.523 0-10 4.478-10 10v90h-59.999v-471.999h220v471.999h-60v-90c-.001-5.522-4.478-10-10.001-10zm90 100v-80h180v80z" fill="#6d91ac"/></g></svg>